<?xml version="1.0" encoding="UTF-8" standalone="no"?>
<!DOCTYPE svg PUBLIC "-//W3C//DTD SVG 1.1//EN" "http://www.w3.org/Graphics/SVG/1.1/DTD/svg11.dtd">
<svg version="1.1" xmlns="http://www.w3.org/2000/svg" xmlns:xlink="http://www.w3.org/1999/xlink" preserveAspectRatio="xMidYMid meet" viewBox="0 0 640 640" width="640" height="640"><defs><path d="M276.91 4.23C289.62 7.64 297.16 20.7 293.75 33.41C260.96 155.8 168.75 499.95 135.95 622.33C132.55 635.04 119.48 642.59 106.77 639.18C99.62 637.27 101.19 637.69 94.04 635.77C81.33 632.36 73.78 619.3 77.19 606.59C109.98 484.2 202.2 140.05 234.99 17.67C238.4 4.96 251.46 -2.59 264.17 0.82C271.32 2.73 269.76 2.31 276.91 4.23Z" id="b58AlhjY60"></path><path d="M165.27 0.82C177.99 -2.59 191.05 4.96 194.46 17.67C227.25 140.05 319.46 484.2 352.26 606.59C355.66 619.3 348.12 632.36 335.41 635.77C328.26 637.69 329.83 637.27 322.68 639.18C309.97 642.59 296.9 635.04 293.5 622.33C260.7 499.95 168.49 155.8 135.69 33.41C132.29 20.7 139.83 7.64 152.54 4.23C159.69 2.31 158.13 2.73 165.27 0.82Z" id="b2RMNDMERI"></path><path d="M491.27 4.23C503.98 7.64 511.52 20.7 508.12 33.41C475.32 155.8 383.11 499.95 350.31 622.33C346.91 635.04 333.84 642.59 321.13 639.18C313.98 637.27 315.55 637.69 308.4 635.77C295.69 632.36 288.15 619.3 291.55 606.59C324.35 484.2 416.56 140.05 449.35 17.67C452.76 4.96 465.82 -2.59 478.54 0.82C485.68 2.73 484.12 2.31 491.27 4.23Z" id="gGAJ5VrjY"></path><path d="M375.83 0.82C388.54 -2.59 401.6 4.96 405.01 17.67C437.8 140.05 530.02 484.2 562.81 606.59C566.22 619.3 558.67 632.36 545.96 635.77C538.81 637.69 540.38 637.27 533.23 639.18C520.52 642.59 507.45 635.04 504.05 622.33C471.25 499.95 379.04 155.8 346.25 33.41C342.84 20.7 350.38 7.64 363.09 4.23C370.24 2.31 368.68 2.73 375.83 0.82Z" id="bf4XpVUOU"></path></defs><g><g><g><use xlink:href="#b58AlhjY60" opacity="1" fill="#c2c2c2" fill-opacity="1"></use></g><g><use xlink:href="#b2RMNDMERI" opacity="1" fill="#ffde00" fill-opacity="1"></use></g><g><use xlink:href="#gGAJ5VrjY" opacity="1" fill="#ffde00" fill-opacity="1"></use></g><g><use xlink:href="#bf4XpVUOU" opacity="1" fill="#c2c2c2" fill-opacity="1"></use></g></g></g></svg>